<?xml version="1.0" encoding="utf-8"?>
<!-- Generator: Adobe Illustrator 27.4.0, SVG Export Plug-In . SVG Version: 6.00 Build 0)  -->
<svg version="1.1" id="Capa_1" xmlns="http://www.w3.org/2000/svg" xmlns:xlink="http://www.w3.org/1999/xlink" x="0px" y="0px"
	 viewBox="0 0 110 90" style="enable-background:new 0 0 110 90;" xml:space="preserve">
<style type="text/css">
	.st0{fill:#212121;}
</style>
<g>
	<g>
		<path class="st0" d="M22,21.8c0.4,0.8,1.2,1.4,2,1.4c0.3,0,0.6-0.1,0.9-0.2c1.1-0.5,1.7-1.8,1.2-2.9L23.9,15
			c-0.5-1.1-1.8-1.7-2.9-1.2c-1.1,0.5-1.7,1.8-1.2,2.9L22,21.8z"/>
		<path class="st0" d="M86.4,37.9c-2.4,0-4.8,0.5-7,1.4c-4-7-11.6-11.5-19.9-11.5c-10.3,0-19.2,6.7-22,16.3
			c-0.8-0.1-1.6-0.2-2.5-0.2c-8.2,0-14.8,6.6-14.8,14.6c0,7.9,6.5,14.5,14.5,14.6c0,0,51.3,0,51.6,0c9.8,0,17.8-7.9,17.8-17.7
			C104.2,45.8,96.2,37.9,86.4,37.9z M86.4,68.7c-0.3,0-48.2-0.1-51.4-0.1c-0.1,0-0.2,0-0.2,0c-5.6,0-10.2-4.6-10.2-10.2
			c0-5.7,4.7-10.2,10.4-10.2c1.2,0,2.3,0.2,3.4,0.6c0.6,0.2,1.3,0.1,1.8-0.2s0.9-0.9,1-1.5c1.6-8.7,9.3-15,18.2-15
			c7.3,0,14,4.3,17,10.9c0.3,0.6,0.7,1,1.3,1.2c0.6,0.2,1.2,0.1,1.8-0.2c2.1-1.2,4.4-1.8,6.8-1.8c7.4,0,13.5,5.9,13.5,13.2
			C99.8,62.8,93.8,68.7,86.4,68.7z"/>
		<path class="st0" d="M20.5,47c-0.7-1.6-1-3.3-1-5c0-7.2,6-13.1,13.3-13.1c2.7,0,5.2,0.8,7.4,2.2c1,0.7,2.4,0.4,3.1-0.6
			c0.7-1,0.4-2.4-0.6-3.1c-2.9-2-6.3-3-9.9-3c-9.8,0-17.7,7.9-17.7,17.5c0,2.3,0.5,4.6,1.4,6.7c0.4,0.8,1.2,1.3,2,1.3
			c0.3,0,0.6-0.1,0.9-0.2C20.5,49.4,21,48.1,20.5,47z"/>
		<path class="st0" d="M12.4,31.2l-5.2-2.1c-1.1-0.5-2.4,0.1-2.9,1.2c-0.5,1.1,0.1,2.4,1.2,2.9l5.2,2.1c0.3,0.1,0.6,0.2,0.8,0.2
			c0.9,0,1.7-0.5,2-1.4C14.1,32.9,13.6,31.6,12.4,31.2z"/>
		<path class="st0" d="M40.8,23c0.3,0.1,0.6,0.2,0.9,0.2c0.9,0,1.7-0.5,2-1.4l2.1-5.1c0.5-1.1-0.1-2.4-1.2-2.9
			c-1.1-0.5-2.4,0.1-2.9,1.2l-2.1,5.1C39.1,21.2,39.7,22.5,40.8,23z"/>
		<path class="st0" d="M10.8,48.6l-5.2,2.1c-1.1,0.5-1.7,1.8-1.2,2.9c0.3,0.9,1.2,1.4,2,1.4c0.3,0,0.6-0.1,0.8-0.2l5.2-2.1
			c1.1-0.5,1.7-1.8,1.2-2.9C13.2,48.7,11.9,48.1,10.8,48.6z"/>
	</g>
</g>
</svg>
