<svg xmlns="http://www.w3.org/2000/svg" xmlns:xlink="http://www.w3.org/1999/xlink" width="47" height="47" viewBox="0 0 47 47">
  <defs>
    <clipPath id="clip-path">
      <rect id="Rectángulo_693" data-name="Rectángulo 693" width="14.215" height="14.221" fill="#212121"/>
    </clipPath>
  </defs>
  <g id="Grupo_1067" data-name="Grupo 1067" transform="translate(-777 -728)">
    <g id="Ellipse_42" data-name="Ellipse 42" transform="translate(777 728)" fill="rgba(0,0,0,0)">
      <path d="M 23.5 46.5 C 20.39480018615723 46.5 17.38274955749512 45.89194869995117 14.54751968383789 44.6927490234375 C 11.80875015258789 43.53435134887695 9.348990440368652 41.87590026855469 7.236539840698242 39.76345825195312 C 5.124100208282471 37.65100860595703 3.465650081634521 35.19124984741211 2.307250022888184 32.45248031616211 C 1.108049988746643 29.61725044250488 0.5 26.60519981384277 0.5 23.5 C 0.5 20.39480018615723 1.108049988746643 17.38274955749512 2.307250022888184 14.54751968383789 C 3.465650081634521 11.80875015258789 5.124100208282471 9.348990440368652 7.236539840698242 7.236539840698242 C 9.348990440368652 5.124100208282471 11.80875015258789 3.465650081634521 14.54751968383789 2.307250022888184 C 17.38274955749512 1.108049988746643 20.39480018615723 0.5 23.5 0.5 C 26.60519981384277 0.5 29.61725044250488 1.108049988746643 32.45248031616211 2.307250022888184 C 35.19124984741211 3.465650081634521 37.65100860595703 5.124100208282471 39.76345825195312 7.236539840698242 C 41.87590026855469 9.348990440368652 43.53435134887695 11.80875015258789 44.6927490234375 14.54751968383789 C 45.89194869995117 17.38274955749512 46.5 20.39480018615723 46.5 23.5 C 46.5 26.60519981384277 45.89194869995117 29.61725044250488 44.6927490234375 32.45248031616211 C 43.53435134887695 35.19124984741211 41.87590026855469 37.65100860595703 39.76345825195312 39.76345825195312 C 37.65100860595703 41.87590026855469 35.19124984741211 43.53435134887695 32.45248031616211 44.6927490234375 C 29.61725044250488 45.89194869995117 26.60519981384277 46.5 23.5 46.5 Z" stroke="none"/>
      <path d="M 23.5 1 C 20.46208000183105 1 17.51556015014648 1.594760894775391 14.74229049682617 2.767749786376953 C 12.06312942504883 3.90093994140625 9.656780242919922 5.523410797119141 7.590099334716797 7.590099334716797 C 5.523410797119141 9.656780242919922 3.90093994140625 12.06312942504883 2.767749786376953 14.74229049682617 C 1.594760894775391 17.51556015014648 1 20.46208000183105 1 23.5 C 1 26.53791999816895 1.594760894775391 29.48443984985352 2.767749786376953 32.25770950317383 C 3.90093994140625 34.93687057495117 5.523410797119141 37.34321975708008 7.590099334716797 39.4099006652832 C 9.656780242919922 41.47658920288086 12.06312942504883 43.09906005859375 14.74229049682617 44.23225021362305 C 17.51556015014648 45.40523910522461 20.46208000183105 46 23.5 46 C 26.53791999816895 46 29.48443984985352 45.40523910522461 32.25770950317383 44.23225021362305 C 34.93687057495117 43.09906005859375 37.34321975708008 41.47658920288086 39.4099006652832 39.4099006652832 C 41.47658920288086 37.34321975708008 43.09906005859375 34.93687057495117 44.23225021362305 32.25770950317383 C 45.40523910522461 29.48443984985352 46 26.53791999816895 46 23.5 C 46 20.46208000183105 45.40523910522461 17.51556015014648 44.23225021362305 14.74229049682617 C 43.09906005859375 12.06312942504883 41.47658920288086 9.656780242919922 39.4099006652832 7.590099334716797 C 37.34321975708008 5.523410797119141 34.93687057495117 3.90093994140625 32.25770950317383 2.767749786376953 C 29.48443984985352 1.594760894775391 26.53791999816895 1 23.5 1 M 23.5 0 C 36.47869110107422 0 47 10.52130889892578 47 23.5 C 47 36.47869110107422 36.47869110107422 47 23.5 47 C 10.52130889892578 47 0 36.47869110107422 0 23.5 C 0 10.52130889892578 10.52130889892578 0 23.5 0 Z" stroke="none" fill="#212121"/>
    </g>
    <g id="Grupo_761" data-name="Grupo 761" transform="translate(793.393 744)">
      <g id="Grupo_760" data-name="Grupo 760" clip-path="url(#clip-path)">
        <path id="Trazado_855" data-name="Trazado 855" d="M7.108,14.221c-.855-.013-1.71-.021-2.565-.04a6.787,6.787,0,0,1-1.509-.165A3.644,3.644,0,0,1,.215,11.251,5.7,5.7,0,0,1,.046,10C-.021,8.311,0,6.625.02,4.938a10.83,10.83,0,0,1,.1-1.482A3.8,3.8,0,0,1,1.673.792,3.991,3.991,0,0,1,3.217.157,7.728,7.728,0,0,1,4.555.032C6.142-.014,7.73,0,9.318.021A13.29,13.29,0,0,1,10.653.1a3.893,3.893,0,0,1,2.268,1,3.817,3.817,0,0,1,1.137,2.115,7.843,7.843,0,0,1,.125,1.324c.046,1.586.037,3.171.011,4.757a13.426,13.426,0,0,1-.084,1.356,3.809,3.809,0,0,1-1.379,2.623,3.9,3.9,0,0,1-1.8.8A11.617,11.617,0,0,1,9,14.2c-.629.008-1.259,0-1.889,0,0,.007,0,.014,0,.02M1.3,7.1H1.274c.013.864.024,1.729.041,2.593a5.715,5.715,0,0,0,.125,1.182,2.443,2.443,0,0,0,.921,1.464,2.744,2.744,0,0,0,1.184.476,7.708,7.708,0,0,0,1.263.095c1.647.027,3.294.038,4.94-.012a5.655,5.655,0,0,0,1.132-.125,2.465,2.465,0,0,0,1.373-.816,2.684,2.684,0,0,0,.562-1.288,7.96,7.96,0,0,0,.095-1.278c.027-1.637.038-3.275-.012-4.912a5.821,5.821,0,0,0-.126-1.146,2.447,2.447,0,0,0-.9-1.441A2.729,2.729,0,0,0,10.672,1.4a7.787,7.787,0,0,0-1.278-.1c-1.64-.026-3.28-.038-4.919.012a5.791,5.791,0,0,0-1.139.125,2.448,2.448,0,0,0-1.45.906,2.582,2.582,0,0,0-.5,1.285c-.05.421-.077.847-.085,1.271-.013.733,0,1.466,0,2.2" transform="translate(0 0)" fill="#212121" fill-rule="evenodd"/>
        <path id="Trazado_856" data-name="Trazado 856" d="M74.4,18.045a.851.851,0,1,1-.852.849.849.849,0,0,1,.852-.849" transform="translate(-63.503 -15.58)" fill="#212121" fill-rule="evenodd"/>
        <path id="Trazado_857" data-name="Trazado 857" d="M28.974,25.321a3.649,3.649,0,1,0,3.644,3.654,3.653,3.653,0,0,0-3.644-3.654m-.008,6.016a2.368,2.368,0,1,1,2.372-2.369,2.37,2.37,0,0,1-2.372,2.369" transform="translate(-21.863 -21.862)" fill="#212121" fill-rule="evenodd"/>
      </g>
    </g>
  </g>
</svg>
