<svg xmlns="http://www.w3.org/2000/svg" xmlns:xlink="http://www.w3.org/1999/xlink" width="47" height="47" viewBox="0 0 47 47">
  <defs>
    <clipPath id="clip-path">
      <rect id="Rectángulo_695" data-name="Rectángulo 695" width="13.817" height="13.779" transform="translate(0 0)" fill="#212121"/>
    </clipPath>
  </defs>
  <g id="Grupo_1069" data-name="Grupo 1069" transform="translate(-897 -728)">
    <g id="Ellipse_42" data-name="Ellipse 42" transform="translate(897 728)" fill="rgba(0,0,0,0)">
      <path d="M 23.5 46.5 C 20.39480018615723 46.5 17.38274955749512 45.89194869995117 14.54751968383789 44.6927490234375 C 11.80875015258789 43.53435134887695 9.348990440368652 41.87590026855469 7.236539840698242 39.76345825195312 C 5.124100208282471 37.65100860595703 3.465650081634521 35.19124984741211 2.307250022888184 32.45248031616211 C 1.108049988746643 29.61725044250488 0.5 26.60519981384277 0.5 23.5 C 0.5 16.11727905273438 4.000010013580322 9.302330017089844 10.10258960723877 4.802579879760742 C 13.86026000976562 2.027950048446655 18.61812019348145 0.5 23.5 0.5 C 26.60519981384277 0.5 29.61725044250488 1.108049988746643 32.45248031616211 2.307250022888184 C 35.19124984741211 3.465650081634521 37.65100860595703 5.124100208282471 39.76345825195312 7.236539840698242 C 41.87590026855469 9.348990440368652 43.53435134887695 11.80875015258789 44.6927490234375 14.54751968383789 C 45.89194869995117 17.38274955749512 46.5 20.39480018615723 46.5 23.5 C 46.5 26.60519981384277 45.89194869995117 29.61725044250488 44.6927490234375 32.45248031616211 C 43.53435134887695 35.19124984741211 41.87590026855469 37.65100860595703 39.76345825195312 39.76345825195312 C 37.65100860595703 41.87590026855469 35.19124984741211 43.53435134887695 32.45248031616211 44.6927490234375 C 29.61725044250488 45.89194869995117 26.60519981384277 46.5 23.5 46.5 Z" stroke="none"/>
      <path d="M 23.5 1 C 18.7242603302002 1 14.07186889648438 2.493228912353516 10.39931106567383 5.205009460449219 C 4.425918579101562 9.609500885009766 1 16.27776908874512 1 23.5 C 1 26.53791999816895 1.594760894775391 29.48443984985352 2.767749786376953 32.25770950317383 C 3.90093994140625 34.93687057495117 5.523410797119141 37.34321975708008 7.590099334716797 39.4099006652832 C 9.656780242919922 41.47658920288086 12.06312942504883 43.09906005859375 14.74229049682617 44.23225021362305 C 17.51556015014648 45.40523910522461 20.46208000183105 46 23.5 46 C 26.53791999816895 46 29.48443984985352 45.40523910522461 32.25770950317383 44.23225021362305 C 34.93687057495117 43.09906005859375 37.34321975708008 41.47658920288086 39.4099006652832 39.4099006652832 C 41.47658920288086 37.34321975708008 43.09906005859375 34.93687057495117 44.23225021362305 32.25770950317383 C 45.40523910522461 29.48443984985352 46 26.53791999816895 46 23.5 C 46 20.46208000183105 45.40523910522461 17.51556015014648 44.23225021362305 14.74229049682617 C 43.09906005859375 12.06312942504883 41.47658920288086 9.656780242919922 39.4099006652832 7.590099334716797 C 37.34321975708008 5.523410797119141 34.93687057495117 3.90093994140625 32.25770950317383 2.767749786376953 C 29.48443984985352 1.594760894775391 26.53791999816895 1 23.5 1 M 23.5 0 C 36.47869110107422 0 47 10.52130889892578 47 23.5 C 47 36.47869110107422 36.47869110107422 47 23.5 47 C 10.52130889892578 47 0 36.47869110107422 0 23.5 C 0 15.73874092102051 3.762458801269531 8.856250762939453 9.805850982666016 4.400150299072266 C 13.46226119995117 1.700290679931641 18.28256988525391 0 23.5 0 Z" stroke="none" fill="#212121"/>
    </g>
    <g id="Grupo_765" data-name="Grupo 765" transform="translate(914 744)">
      <g id="Grupo_764" data-name="Grupo 764" transform="translate(0 0)" clip-path="url(#clip-path)">
        <path id="Trazado_859" data-name="Trazado 859" d="M31.033,26.652c.191-.215.349-.434.546-.619a3,3,0,0,1,2.155-.85,4.982,4.982,0,0,1,1.355.165,2.648,2.648,0,0,1,1.88,1.978,8.288,8.288,0,0,1,.25,2.266c0,1.611,0,3.221,0,4.831,0,.151-.042.19-.19.189q-1.244-.01-2.489,0c-.146,0-.178-.044-.177-.182q.007-2.3,0-4.6a4.129,4.129,0,0,0-.133-1.141,1.283,1.283,0,0,0-1.411-1,1.542,1.542,0,0,0-1.621,1.54,5.747,5.747,0,0,0-.044.719c0,1.49,0,2.981,0,4.471,0,.149-.037.192-.188.191q-1.254-.011-2.507,0c-.134,0-.173-.035-.173-.171q.005-4.426,0-8.852c0-.146.048-.18.186-.179q1.19.009,2.381,0c.146,0,.184.046.181.184-.008.353,0,.705,0,1.058" transform="translate(-23.403 -20.834)" fill="#212121"/>
        <path id="Trazado_860" data-name="Trazado 860" d="M4.136,31.11c0,1.46,0,2.919,0,4.379,0,.162-.04.211-.208.209-.829-.009-1.659-.007-2.488,0-.133,0-.173-.032-.173-.17q.006-4.433,0-8.866c0-.122.03-.166.159-.165.841.006,1.683.007,2.524,0,.161,0,.184.061.183.2q-.006,2.208,0,4.415" transform="translate(-1.051 -21.919)" fill="#212121"/>
        <path id="Trazado_861" data-name="Trazado 861" d="M3.313,1.648A1.657,1.657,0,1,1,1.659,0,1.662,1.662,0,0,1,3.313,1.648" transform="translate(0 0)" fill="#212121"/>
      </g>
    </g>
  </g>
</svg>
