<svg xmlns="http://www.w3.org/2000/svg" xmlns:xlink="http://www.w3.org/1999/xlink" width="47" height="47" viewBox="0 0 47 47">
  <defs>
    <clipPath id="clip-path">
      <rect id="Rectángulo_694" data-name="Rectángulo 694" width="18" height="13" transform="translate(0 -0.274)" fill="#212121"/>
    </clipPath>
  </defs>
  <g id="Grupo_1068" data-name="Grupo 1068" transform="translate(-837 -728)">
    <g id="Ellipse_42" data-name="Ellipse 42" transform="translate(837 728)" fill="rgba(0,0,0,0)">
      <path d="M 23.5 46.5 C 20.39480018615723 46.5 17.38274955749512 45.89194869995117 14.54751968383789 44.6927490234375 C 11.80875015258789 43.53435134887695 9.348990440368652 41.87590026855469 7.236539840698242 39.76345825195312 C 5.124100208282471 37.65100860595703 3.465650081634521 35.19124984741211 2.307250022888184 32.45248031616211 C 1.108049988746643 29.61725044250488 0.5 26.60519981384277 0.5 23.5 C 0.5 20.39480018615723 1.108049988746643 17.38274955749512 2.307250022888184 14.54751968383789 C 3.465650081634521 11.80875015258789 5.124100208282471 9.348990440368652 7.236539840698242 7.236539840698242 C 9.348990440368652 5.124100208282471 11.80875015258789 3.465650081634521 14.54751968383789 2.307250022888184 C 17.38274955749512 1.108049988746643 20.39480018615723 0.5 23.5 0.5 C 26.60519981384277 0.5 29.61725044250488 1.108049988746643 32.45248031616211 2.307250022888184 C 35.19124984741211 3.465650081634521 37.65100860595703 5.124100208282471 39.76345825195312 7.236539840698242 C 41.87590026855469 9.348990440368652 43.53435134887695 11.80875015258789 44.6927490234375 14.54751968383789 C 45.89194869995117 17.38274955749512 46.5 20.39480018615723 46.5 23.5 C 46.5 26.60519981384277 45.89194869995117 29.61725044250488 44.6927490234375 32.45248031616211 C 43.53435134887695 35.19124984741211 41.87590026855469 37.65100860595703 39.76345825195312 39.76345825195312 C 37.65100860595703 41.87590026855469 35.19124984741211 43.53435134887695 32.45248031616211 44.6927490234375 C 29.61725044250488 45.89194869995117 26.60519981384277 46.5 23.5 46.5 Z" stroke="none"/>
      <path d="M 23.5 1 C 20.46208000183105 1 17.51556015014648 1.594760894775391 14.74229049682617 2.767749786376953 C 12.06312942504883 3.90093994140625 9.656780242919922 5.523410797119141 7.590099334716797 7.590099334716797 C 5.523410797119141 9.656780242919922 3.90093994140625 12.06312942504883 2.767749786376953 14.74229049682617 C 1.594760894775391 17.51556015014648 1 20.46208000183105 1 23.5 C 1 26.53791999816895 1.594760894775391 29.48443984985352 2.767749786376953 32.25770950317383 C 3.90093994140625 34.93687057495117 5.523410797119141 37.34321975708008 7.590099334716797 39.4099006652832 C 9.656780242919922 41.47658920288086 12.06312942504883 43.09906005859375 14.74229049682617 44.23225021362305 C 17.51556015014648 45.40523910522461 20.46208000183105 46 23.5 46 C 26.53791999816895 46 29.48443984985352 45.40523910522461 32.25770950317383 44.23225021362305 C 34.93687057495117 43.09906005859375 37.34321975708008 41.47658920288086 39.4099006652832 39.4099006652832 C 41.47658920288086 37.34321975708008 43.09906005859375 34.93687057495117 44.23225021362305 32.25770950317383 C 45.40523910522461 29.48443984985352 46 26.53791999816895 46 23.5 C 46 20.46208000183105 45.40523910522461 17.51556015014648 44.23225021362305 14.74229049682617 C 43.09906005859375 12.06312942504883 41.47658920288086 9.656780242919922 39.4099006652832 7.590099334716797 C 37.34321975708008 5.523410797119141 34.93687057495117 3.90093994140625 32.25770950317383 2.767749786376953 C 29.48443984985352 1.594760894775391 26.53791999816895 1 23.5 1 M 23.5 0 C 36.47869110107422 0 47 10.52130889892578 47 23.5 C 47 36.47869110107422 36.47869110107422 47 23.5 47 C 10.52130889892578 47 0 36.47869110107422 0 23.5 C 0 10.52130889892578 10.52130889892578 0 23.5 0 Z" stroke="none" fill="#212121"/>
    </g>
    <g id="Grupo_763" data-name="Grupo 763" transform="translate(852 745.274)">
      <g id="Grupo_762" data-name="Grupo 762" clip-path="url(#clip-path)">
        <path id="Trazado_858" data-name="Trazado 858" d="M17.8,1.987A2.276,2.276,0,0,0,16.192.38,54.317,54.317,0,0,0,9.09,0a54.317,54.317,0,0,0-7.1.38A2.276,2.276,0,0,0,.38,1.987,23.652,23.652,0,0,0,0,6.363a23.655,23.655,0,0,0,.38,4.376,2.277,2.277,0,0,0,1.607,1.607,54.346,54.346,0,0,0,7.1.38,54.346,54.346,0,0,0,7.1-.38A2.277,2.277,0,0,0,17.8,10.739a23.655,23.655,0,0,0,.38-4.376,23.652,23.652,0,0,0-.38-4.376M7.272,9.09V3.636l4.723,2.727Z" fill="#212121"/>
      </g>
    </g>
  </g>
</svg>
